# xmcd CD database file
#
# Track frame offsets:
#	150
#	21592
#	41758
#	58693
#	88106
#	106813
#	126956
#
# Disc length: 1953 seconds
#
# Revision: 0
# Processed by: cddbd v1.5.2PL0 Copyright (c) Steve Scherf et al.
# Submitted via: CDex 1.70beta2
#
DISCID=5e079f07
DTITLE=All That Jazz - Dear
DYEAR=2008
DGENRE=Jazz
TTITLE0=WINDING ROAD
TTITLE1=桜
TTITLE2=サヨナラバス
TTITLE3=Juniour Sweet
TTITLE4=LOVE2000
TTITLE5=かたちあるもの
TTITLE6=希望の轍
EXTD=YEAR: 2008
EXTT0=
EXTT1=
EXTT2=
EXTT3=
EXTT4=
EXTT5=
EXTT6=
PLAYORDER=
